# xmcd CD database file
#
# Track frame offsets:
#	150
#	13807
#	25822
#	36466
#	49705
#	62525
#	77192
#	90093
#	102513
#	118002
#	136103
#	152739
#	167649
#	179042
#	272829
#
# Disc length: 4091 seconds
#
# Revision: 0
# Processed by: cddbd v1.5.1PL0 Copyright (c) Steve Scherf et al.
# Submitted via: CDex 1.51
#
DISCID=c40ff90f
DTITLE=The Ordinary Boys - Brassbound
DYEAR=2005
DGENRE=Ska
TTITLE0=Brassbound
TTITLE1=Boys Will Be Boys
TTITLE2=Life Will Be The Death Of Me
TTITLE3=Thanks To The Girl
TTITLE4=On An Island
TTITLE5=One Step Forward (Two Steps Back)
TTITLE6=Skull and Bones
TTITLE7=Don't Live Too Fast
TTITLE8=Look What You Did
TTITLE9=Call To Arms
TTITLE10=A Few Home Truth
TTITLE11=Rudy's In Love
TTITLE12=The KKK Took My Baby Away 2005
TTITLE13=Red Letter Day
TTITLE14=Video (Boys Will Be Boys)
EXTD=YEAR: 2005
EXTT0=
EXTT1=
EXTT2=
EXTT3=
EXTT4=
EXTT5=
EXTT6=
EXTT7=
EXTT8=
EXTT9=
EXTT10=
EXTT11=
EXTT12=
EXTT13=
EXTT14=
PLAYORDER=
